<?xml version="1.0" encoding="utf-8"?>
<!-- Generator: Adobe Illustrator 16.0.0, SVG Export Plug-In . SVG Version: 6.00 Build 0)  -->
<!DOCTYPE svg PUBLIC "-//W3C//DTD SVG 1.1//EN" "http://www.w3.org/Graphics/SVG/1.1/DTD/svg11.dtd">
<svg version="1.1" id="图层_1" xmlns="http://www.w3.org/2000/svg" xmlns:xlink="http://www.w3.org/1999/xlink" x="0px" y="0px"
	 width="200px" height="200px" viewBox="0 0 200 200" enable-background="new 0 0 200 200" xml:space="preserve">
<path fill="#e7e7e7" d="M132.38,146.072c-10.762-1.221-20.284-6.945-26.95-15.409c4.934-8.288,7.807-18.144,7.807-28.728v-3.872
	c0-29.388-22.058-53.211-49.269-53.211H33.089v95.588H0V16.177h63.971c44.669,0,80.88,36.212,80.88,80.882v5.882
	C144.854,118.805,140.27,133.587,132.38,146.072z M38.972,155.146h24.996c14.219,0,27.022-6.515,36.015-16.92
	c6.949,8.043,16.18,13.752,26.582,15.936c-14.834,18.104-37.361,29.66-62.592,29.66H0v-28.676h33.089H38.972z M136.029,183.822
	c-44.67,0-80.881-36.211-80.881-80.881v-5.883c0-15.861,4.583-30.645,12.473-43.131c10.758,1.228,20.277,6.959,26.938,15.433
	c-4.925,8.283-7.794,18.129-7.794,28.704v3.872c0,29.387,22.059,53.211,49.27,53.211h30.878v-100V44.853V16.177H200v167.645H136.029
	z M136.034,44.853c-3.244,0-6.409,0.355-9.478,1.002c-7.221-8.821-16.271-16.078-26.569-21.212
	c10.853-5.414,23.089-8.466,36.042-8.466h16.178v28.676H136.034z"/>
</svg>
