<?xml version="1.0" encoding="utf-8"?>
<!-- Generator: Adobe Illustrator 16.0.0, SVG Export Plug-In . SVG Version: 6.00 Build 0)  -->
<!DOCTYPE svg PUBLIC "-//W3C//DTD SVG 1.1//EN" "http://www.w3.org/Graphics/SVG/1.1/DTD/svg11.dtd">
<svg version="1.1" id="图层_1" xmlns="http://www.w3.org/2000/svg" xmlns:xlink="http://www.w3.org/1999/xlink" x="0px" y="0px"
	 width="993.942px" height="228px" viewBox="0 0 993.942 228" enable-background="new 0 0 993.942 228" xml:space="preserve">
<path fill="#FFFFFF" d="M330.995,10c-16.017,0-29.001,13.023-29.001,29.088V108.9c0,16.065,12.984,29.088,29.001,29.088
	c16.016,0,28.999-13.022,28.999-29.088V39.088C359.994,23.023,347.011,10,330.995,10z M337.014,109.214
	c0,3.195-2.688,5.786-6.003,5.786c-3.316,0-6.004-2.591-6.004-5.786V38.775c0-3.195,2.688-5.786,6.004-5.786
	c3.314,0,6.003,2.591,6.003,5.786V109.214z M459.001,24.505c0,6.349-5.204,11.495-11.623,11.495H430v76.333
	C430,138.105,409.227,159,383.601,159h-17.6v-23H384c12.703,0,23.001-10.298,23.001-23V36h-40.988V13.01h81.365
	C453.797,13.01,459.001,18.156,459.001,24.505z M501.995,137.988c-16.017,0-29-13.022-29-29.088V39.088
	c0-16.064,12.983-29.088,29-29.088c16.016,0,29,13.023,29,29.088V108.9C530.995,124.966,518.01,137.988,501.995,137.988z
	 M508.014,38.775c0-3.195-2.688-5.786-6.004-5.786c-3.314,0-6.003,2.591-6.003,5.786v70.438c0,3.195,2.689,5.786,6.003,5.786
	s6.004-2.591,6.004-5.786V38.775z M547.381,136.844c23.879,2.221,46.383,9.068,67.521,20.586v-25.234
	c-18.393-7.969-40.9-13.28-67.521-15.938V136.844z M604.608,60.411C617.389,47.035,631,27.419,631,22.5
	c0-5.264-3.502-9.69-8.275-11.057v-0.107h-0.414C621.45,11.125,620.553,11,619.625,11h-42.074c0.297-0.872,0.803-2.074,1.533-3.648
	c0.547-1.764,0.957-3.092,1.234-3.984h-19.764c-5.217,14.609-12.764,24.135-22.645,28.555v14.609
	c4.664-0.882,8.781-1.992,12.352-3.32c5.211,8.415,10.84,15.72,16.881,21.914c-7.141,3.549-17.568,6.641-31.291,9.297v17.266
	c3.842-0.436,8.916-1.328,15.234-2.656c2.193-0.436,3.84-0.882,4.939-1.328v17.93c19.486,1.774,36.645,6.641,51.465,14.609v-24.57
	c-15.375-5.748-31.566-8.633-48.582-8.633c9.881-2.656,18.25-5.748,25.115-9.297c12.352,6.205,27.854,10.854,46.523,13.945V74.422
	c-11.805-1.764-21.963-4.866-30.469-9.297C601.604,63.685,603.114,62.111,604.608,60.411z M583.612,53.836
	c-4.939-4.42-9.881-9.961-14.82-16.602h-8.646c2.471-1.764,4.664-3.984,6.588-6.641h34.996
	C596.235,40.337,590.2,48.088,583.612,53.836z M730.217,66.822v33.328h-17.281v-4.32h-26.539v4.32h-17.281V56.947h17.281v4.32
	h26.539l4.32-5.555l17.281,4.938c0-2.054,0-4.938,0-8.641h-72.211c0.818,3.298,1.021,6.384,0.617,9.258
	c-0.83,6.172-3.916,9.672-9.26,10.492c-5.352,0-8.021-3.086-8.021-9.258c0-1.234,0.617-3.289,1.852-6.172
	c3.287-6.992,4.938-14.195,4.938-21.602h1.234c0.818,1.649,2.055,3.5,3.703,5.555c0.404,0.829,0.818,1.446,1.234,1.852h75.914
	l4.938-6.789l16.047,4.32l-3.703,4.32c-2.469,11.109-8.023,19.75-16.664,25.922l-1.852-0.617c0-0.405,0-1.852,0-4.32
	c0.404-1.64,0.617-2.671,0.617-3.086L730.217,66.822z M669.116,6.955h17.281v10.492h27.771V6.955h17.281v10.492h20.367v10.492
	H731.45v9.258H714.17v-9.258h-27.773v9.258h-17.281v-9.258h-20.367V17.447h20.367V6.955L669.116,6.955z M727.749,101.385
	l17.281,4.938l-3.703,5.555v43.819h-17.898v-7.405h-49.375v6.789h-17.898V102.62h17.898v4.938h48.758L727.749,101.385z
	 M674.053,118.049v19.75h49.375v-19.75H674.053z M686.397,71.76v13.578h26.537V71.76H686.397z M812.649,50.158h16.664v4.32h3.701
	V6.338h18.518v31.477c3.287-9.046,5.555-18.516,6.789-28.391l17.279,2.469c-6.586,17.281-14.609,29.22-24.068,35.797v7.406H854
	l3.703-6.789l16.664,5.555l-4.32,5.555v81.47c0.818,9.875-6.588,14.813-22.219,14.813c-1.65,0-2.469-0.617-2.469-1.852
	c-1.234-7.002-5.557-10.908-12.961-11.728v-1.853c15.217,1.641,22.219,0.617,20.982-3.086v-24.688h-24.068v41.969h-16.664v-40.734
	c-6.174,16.046-16.26,29.414-30.242,40.117c-1.234-7-3.086-13.789-5.557-20.367c2.471-1.233,4.523-2.256,6.174-3.086v-32.71H766.36
	v-11.11h16.664V65.588H770.68v-8.023c-0.416,0.415-1.031,0.829-1.852,1.234c-0.83,0.829-1.447,1.446-1.854,1.852l-1.232-1.234
	c10.693-20.155,16.451-37.851,17.281-53.078h19.75c-2.064,9.47-4.119,16.259-6.174,20.367h16.049v11.109h-21.604
	c-4.117,6.172-9.469,11.727-16.047,16.664h34.564v11.109h-9.875v20.984h10.49v11.109h-10.49v22.836
	c1.232-0.82,3.287-2.47,6.172-4.938c2.873-2.469,5.139-4.32,6.789-5.555V50.158z M810.18,9.424l1.852-1.234
	c12.75,8.641,19.336,17.493,19.75,26.539c-0.414,6.172-3.086,9.672-8.023,10.492c-4.531,0-7-3.086-7.406-9.258
	C816.756,28.151,814.702,19.299,810.18,9.424z M853.383,66.205h-24.07v11.727h24.07V66.205z M853.383,89.658h-24.07v11.109h24.07
	V89.658z M945.073,29.174h22.219l6.789-8.641l19.75,6.789l-4.32,5.555c-4.938,12.344-12.76,21.196-23.453,26.539l-1.852-1.234
	c1.639-5.343,2.873-11.312,3.703-17.898H906.19c0,4.118-0.617,8.023-1.854,11.727c-2.469,5.352-6.586,7.406-12.344,6.172
	c-4.938-1.64-6.789-5.555-5.555-11.727c0-1.234,0.617-3.086,1.852-5.555c3.703-6.172,5.555-13.781,5.555-22.836l1.854-0.617
	c2.873,4.532,5.342,8.438,7.406,11.727h30.24c-1.648-0.82-2.68-3.289-3.086-7.406c-0.828-5.757-2.469-10.492-4.938-14.195
	l1.234-1.852c9.459,0,16.248,2.469,20.367,7.406C951.032,18.894,950.415,24.236,945.073,29.174z M894.463,62.502h89.492v11.109
	h-35.18v20.984h32.094v11.109h-32.094v35.797h40.732v11.108h-100.6v-11.108h41.352v-35.797h-32.711V94.596h32.711V73.611h-35.797
	V62.502z M952.479,109.408l1.234-1.234c15.217,4.117,23.453,9.875,24.688,17.281c1.234,5.768-0.211,9.673-4.32,11.727
	c-4.531,2.875-8.023,2.258-10.492-1.852c-0.828-0.818-1.648-2.671-2.469-5.555C958.651,122.369,955.766,115.58,952.479,109.408z
	 M311.63,214.783l-9.519-19.196h3.6l7.599,15.997l7.559-15.997h3.6l-9.519,19.196v10.398h-3.319L311.63,214.783L311.63,214.783z
	 M342.071,195.587h3.279v29.595h-3.279V195.587z M386.147,220.303l-0.04-24.716h3.199v29.595h-3.199l-17.558-24.916l0.08,24.916
	h-3.199v-29.595h3.359L386.147,220.303z M433.586,203.266c-0.92-1.279-2.039-2.359-3.319-3.199c-1.92-1.319-4.238-2.08-6.879-2.08
	c-6.479,0-12.118,4.959-12.118,12.357c0,7.52,5.68,12.479,12.158,12.479c3.12,0,5.879-1.079,7.919-2.68
	c2.079-1.64,3.521-3.879,3.999-6.199h-14.718v-2.719h18.558c-0.039,1.719-0.439,3.879-1.319,5.719
	c-2.561,5.56-8.479,8.799-14.438,8.799c-8.639,0-15.478-6.639-15.478-15.396c0-8.879,6.959-15.277,15.518-15.277
	c5.999,0,11.56,3.359,13.878,8.199h-3.76V203.266z M465.148,209.904l-9.519-14.317h3.799l7.64,11.798l7.639-11.798h3.76
	l-9.479,14.356l10.197,15.238h-3.8l-8.438-12.838l-8.278,12.838h-3.68L465.148,209.904z M496.63,195.587h3.279v29.595h-3.279
	V195.587z M520.909,225.182h-3.561l12.357-29.595h3.201l12.236,29.595h-3.6l-3.438-8.318h-13.799L520.909,225.182z M531.188,199.307
	l-5.879,14.838h11.799L531.188,199.307z M561.149,210.464c0-9.118,7.078-15.397,15.438-15.397c8.68,0,15.439,6.641,15.439,15.317
	c0,8.679-6.721,15.317-15.439,15.317c-8.758,0-15.438-6.76-15.438-15.197V210.464z M564.469,210.384
	c0,6.96,5.238,12.397,12.158,12.397c6.998,0,12.117-5.639,12.117-12.397c0-6.758-5.119-12.397-12.158-12.397
	c-6.959,0-12.117,5.52-12.117,12.357V210.384L564.469,210.384z M610.709,195.587h7.799c2.68,0,4.52,0.479,5.838,1.399
	c2.4,1.359,3.199,3.84,3.199,6.158c0,3.479-1.959,5.239-3.959,6.278c5.32,1.642,5.68,6.159,5.68,7.521
	c-0.041,3.199-1.52,5.599-4.039,6.918c-1.76,1.08-3.439,1.32-6.359,1.32h-8.158V195.587L610.709,195.587z M613.989,208.385h4.479
	c1.359,0,2.561-0.16,3.479-0.601c1.881-1.039,2.398-2.601,2.398-4.397c0-2.16-1.16-3.641-2.398-4.201
	c-0.76-0.398-1.76-0.64-3.68-0.68h-4.279v9.879H613.989z M613.989,222.262h5.357c1.199,0,2.521-0.119,3.602-0.56
	c1.758-0.761,3.078-2.279,3.119-4.919c0-2.399-1.281-4.159-3.16-4.999c-1.32-0.562-2.32-0.601-4.16-0.601h-4.758V222.262
	L613.989,222.262z M648.749,225.182h-3.559l12.355-29.595h3.201l12.236,29.595h-3.6l-3.439-8.318h-13.797L648.749,225.182z
	 M659.028,199.307l-5.881,14.838h11.799L659.028,199.307z M688.989,210.464c0-9.118,7.078-15.397,15.438-15.397
	c8.68,0,15.439,6.641,15.439,15.317c0,8.679-6.721,15.317-15.439,15.317c-8.758,0-15.438-6.76-15.438-15.197V210.464z
	 M692.309,210.384c0,6.96,5.238,12.397,12.158,12.397c6.998,0,12.117-5.639,12.117-12.397c0-6.758-5.119-12.397-12.158-12.397
	c-6.959,0-12.117,5.52-12.117,12.357V210.384L692.309,210.384z M742.948,225.182h-3.119v-4.398h3.119V225.182z M762.829,210.464
	c0-9.118,7.078-15.397,15.438-15.397c8.68,0,15.438,6.641,15.438,15.317c0,8.679-6.719,15.317-15.438,15.317
	c-8.76,0-15.438-6.76-15.438-15.197V210.464z M766.147,210.384c0,6.96,5.238,12.397,12.158,12.397
	c6.998,0,12.117-5.639,12.117-12.397c0-6.758-5.119-12.397-12.158-12.397c-6.959,0-12.117,5.52-12.117,12.357V210.384z
	 M812.108,195.587h7.719c4.639,0,6.799,0.56,8.318,1.521c2.398,1.438,4.039,4.6,4.039,7.959c0.039,1.998-0.52,4.119-1.76,5.799
	c-1.76,2.398-3.879,2.959-6.6,3.238l7.357,11.078h-3.6l-8.357-12.918h0.959c2.08,0,4.959-0.039,6.561-1.52
	c1.561-1.52,2.24-3.319,2.24-5.439c0-2.199-1.08-4.519-2.92-5.719c-1.48-0.96-3.32-1.08-6-1.08h-4.639v26.676h-3.318V195.587
	L812.108,195.587z M874.223,203.266c-0.92-1.279-2.039-2.359-3.318-3.199c-1.92-1.319-4.238-2.08-6.879-2.08
	c-6.479,0-12.117,4.959-12.117,12.357c0,7.52,5.678,12.479,12.158,12.479c3.119,0,5.879-1.079,7.918-2.68
	c2.08-1.64,3.52-3.879,4-6.199h-14.719v-2.719h18.557c-0.039,1.719-0.439,3.879-1.318,5.719c-2.561,5.56-8.479,8.799-14.438,8.799
	c-8.641,0-15.479-6.639-15.479-15.396c0-8.879,6.959-15.277,15.518-15.277c6,0,11.559,3.359,13.879,8.199h-3.762V203.266z
	 M902.627,225.182h-3.121v-4.398h3.121V225.182z M951.583,217.223c-1.92,4.561-7.08,8.479-13.598,8.479
	c-8.76,0-15.439-6.759-15.439-15.317c0-8.438,6.521-15.316,15.398-15.316c7.318,0,11.918,4.879,13.637,8.639h-3.561
	c-0.998-1.76-4.357-5.719-10.076-5.719c-6.92,0-12.119,5.479-12.119,12.357c0,6.998,5.24,12.438,12.119,12.438
	c6.197,0,9.357-4.439,10.076-5.561H951.583z M990.784,220.303l-0.041-24.716h3.199v29.595h-3.199l-17.557-24.916l0.08,24.916h-3.199
	v-29.595h3.357L990.784,220.303z M45.001,169H0V0h87.001c17.61,0,34.249,4.145,49.006,11.501C150.761,4.146,167.394,0,185.001,0h22
	v39h-21.995c-4.401,0-8.697,0.48-12.861,1.357C187.677,59.324,197,83.572,197,110v8c0,21.572-6.233,41.68-16.964,58.66
	c-14.636-1.661-27.588-9.447-36.652-20.958c6.709-11.272,10.617-24.675,10.617-39.07v-5.264c0-39.968-30-72.368-67.005-72.368
	H45.001V169z M272.001,0v228h-87c-17.61,0-34.25-4.146-49.008-11.502C121.24,223.854,104.606,228,87.001,228H0v-39h45.001h8h33.995
	c4.401,0,8.696-0.48,12.86-1.356C84.324,168.676,75.001,144.428,75.001,118v-8c0-21.572,6.233-41.677,16.963-58.658
	c14.631,1.669,27.578,9.465,36.636,20.987c-6.698,11.266-10.6,24.656-10.6,39.039v5.264c0,27.438,14.14,51.308,34.978,63.578
	c0.084,0.05,0.169,0.098,0.254,0.146c0.811,0.473,1.632,0.925,2.462,1.362c0.161,0.084,0.322,0.17,0.484,0.253
	c0.814,0.42,1.638,0.821,2.469,1.206c0.126,0.058,0.25,0.12,0.376,0.178c0.965,0.438,1.941,0.855,2.929,1.247
	c0.04,0.016,0.081,0.029,0.12,0.045c0.891,0.35,1.792,0.676,2.699,0.986c0.325,0.11,0.652,0.213,0.979,0.318
	c0.631,0.204,1.266,0.399,1.906,0.584c0.394,0.113,0.789,0.225,1.186,0.33c0.594,0.159,1.192,0.306,1.793,0.447
	c0.41,0.097,0.819,0.198,1.232,0.286c4.25,0.913,8.641,1.4,13.139,1.4H227V53V39V0H272.001z"/>
</svg>
