<?xml version="1.0" encoding="utf-8"?>
<!-- Generator: Adobe Illustrator 16.0.0, SVG Export Plug-In . SVG Version: 6.00 Build 0)  -->
<!DOCTYPE svg PUBLIC "-//W3C//DTD SVG 1.1//EN" "http://www.w3.org/Graphics/SVG/1.1/DTD/svg11.dtd">
<svg version="1.1" id="图层_1" xmlns="http://www.w3.org/2000/svg" xmlns:xlink="http://www.w3.org/1999/xlink" x="0px" y="0px"
	 width="993.942px" height="228px" viewBox="0 0 993.942 228" enable-background="new 0 0 993.942 228" xml:space="preserve">
<path fill-rule="evenodd" clip-rule="evenodd" fill="#494949" d="M330.995,10c-16.017,0-29.001,13.023-29.001,29.088V108.9
	c0,16.065,12.984,29.089,29.001,29.089c16.016,0,28.999-13.023,28.999-29.089V39.088C359.994,23.023,347.011,10,330.995,10z
	 M337.014,109.214c0,3.195-2.688,5.786-6.003,5.786c-3.316,0-6.004-2.591-6.004-5.786V38.775c0-3.195,2.688-5.786,6.004-5.786
	c3.314,0,6.003,2.591,6.003,5.786V109.214z M459.001,24.505c0,6.349-5.204,11.495-11.623,11.495H430v76.333
	C430,138.106,409.227,159,383.601,159h-17.6v-23H384c12.703,0,23.001-10.298,23.001-23V36h-40.988V13.01h81.365
	C453.797,13.01,459.001,18.156,459.001,24.505z M501.994,137.989c-16.016,0-29-13.023-29-29.089V39.088
	c0-16.064,12.984-29.088,29-29.088c16.017,0,29,13.023,29,29.088V108.9C530.994,124.966,518.011,137.989,501.994,137.989z
	 M508.014,38.775c0-3.195-2.688-5.786-6.003-5.786c-3.316,0-6.004,2.591-6.004,5.786v70.438c0,3.195,2.688,5.786,6.004,5.786
	c3.314,0,6.003-2.591,6.003-5.786V38.775z M547.382,136.844c23.879,2.221,46.382,9.068,67.521,20.586v-25.234
	c-18.393-7.969-40.901-13.281-67.521-15.938V136.844z M604.607,60.411c12.782-13.376,26.394-32.992,26.394-37.911
	c0-5.264-3.502-9.69-8.275-11.057v-0.107h-0.414c-0.862-0.211-1.759-0.336-2.686-0.336h-42.074c0.297-0.872,0.802-2.074,1.532-3.648
	c0.547-1.764,0.958-3.092,1.235-3.984h-19.763c-5.218,14.609-12.764,24.135-22.645,28.555v14.609
	c4.664-0.882,8.781-1.992,12.352-3.32c5.211,8.415,10.84,15.72,16.88,21.914c-7.141,3.549-17.568,6.641-31.29,9.297v17.266
	c3.841-0.436,8.916-1.328,15.233-2.656c2.193-0.436,3.841-0.882,4.94-1.328v17.93c19.486,1.774,36.644,6.641,51.465,14.609v-24.57
	c-15.375-5.748-31.567-8.633-48.583-8.633c9.882-2.656,18.251-5.748,25.115-9.297c12.352,6.205,27.855,10.854,46.524,13.945V74.422
	c-11.805-1.764-21.963-4.866-30.468-9.297C601.604,63.685,603.113,62.111,604.607,60.411z M583.612,53.836
	c-4.94-4.42-9.881-9.961-14.821-16.602h-8.646c2.471-1.764,4.664-3.984,6.588-6.641h34.996
	C596.234,40.337,590.2,48.088,583.612,53.836z M730.217,66.822v33.328h-17.281v-4.32h-26.539v4.32h-17.281V56.947h17.281v4.32
	h26.539l4.32-5.555l17.281,4.938c0-2.054,0-4.938,0-8.641h-72.211c0.819,3.298,1.022,6.384,0.617,9.258
	c-0.829,6.172-3.915,9.672-9.258,10.492c-5.353,0-8.023-3.086-8.023-9.258c0-1.234,0.617-3.289,1.852-6.172
	c3.288-6.992,4.938-14.195,4.938-21.602h1.234c0.819,1.649,2.054,3.5,3.703,5.555c0.405,0.829,0.819,1.446,1.234,1.852h75.914
	l4.938-6.789l16.047,4.32l-3.703,4.32c-2.469,11.109-8.023,19.75-16.664,25.922l-1.852-0.617c0-0.405,0-1.852,0-4.32
	c0.405-1.64,0.617-2.671,0.617-3.086L730.217,66.822z M669.115,6.955h17.281v10.492h27.773V6.955h17.281v10.492h20.367v10.492
	h-20.367v9.258H714.17v-9.258h-27.773v9.258h-17.281v-9.258h-20.367V17.447h20.367V6.955z M727.748,101.385l17.281,4.938
	l-3.703,5.555v43.82h-17.898v-7.406h-49.375v6.789h-17.898v-52.461h17.898v4.938h48.758L727.748,101.385z M674.053,118.049v19.75
	h49.375v-19.75H674.053z M686.396,71.76v13.578h26.539V71.76H686.396z M812.648,50.158h16.664v4.32h3.703V6.338h18.516v31.477
	c3.288-9.046,5.555-18.516,6.789-28.391l17.281,2.469c-6.587,17.281-14.61,29.22-24.07,35.797v7.406H854l3.703-6.789l16.664,5.555
	l-4.32,5.555v81.469c0.819,9.875-6.587,14.813-22.219,14.813c-1.649,0-2.469-0.617-2.469-1.852
	c-1.234-7.001-5.555-10.907-12.961-11.727v-1.852c15.218,1.64,22.219,0.617,20.984-3.086v-24.688h-24.07v41.969h-16.664v-40.734
	c-6.172,16.047-16.259,29.413-30.242,40.117c-1.234-7.001-3.086-13.79-5.555-20.367c2.469-1.234,4.522-2.257,6.172-3.086V97.682
	h-16.664V86.572h16.664V65.588H770.68v-8.023c-0.415,0.415-1.032,0.829-1.852,1.234c-0.829,0.829-1.446,1.446-1.852,1.852
	l-1.234-1.234c10.694-20.155,16.452-37.851,17.281-53.078h19.75c-2.063,9.47-4.118,16.259-6.172,20.367h16.047v11.109h-21.602
	c-4.118,6.172-9.47,11.727-16.047,16.664h34.563v11.109h-9.875v20.984h10.492v11.109h-10.492v22.836
	c1.234-0.82,3.288-2.469,6.172-4.938c2.874-2.469,5.14-4.32,6.789-5.555V50.158z M810.18,9.424l1.852-1.234
	c12.749,8.641,19.335,17.493,19.75,26.539c-0.415,6.172-3.086,9.672-8.023,10.492c-4.532,0-7.001-3.086-7.406-9.258
	C816.757,28.151,814.702,19.299,810.18,9.424z M853.383,66.205h-24.07v11.727h24.07V66.205z M853.383,89.658h-24.07v11.109h24.07
	V89.658z M945.072,29.174h22.219l6.789-8.641l19.75,6.789l-4.32,5.555c-4.938,12.344-12.759,21.196-23.453,26.539l-1.852-1.234
	c1.64-5.343,2.874-11.312,3.703-17.898h-61.719c0,4.118-0.617,8.023-1.852,11.727c-2.469,5.352-6.587,7.406-12.344,6.172
	c-4.938-1.64-6.789-5.555-5.555-11.727c0-1.234,0.617-3.086,1.852-5.555c3.703-6.172,5.555-13.781,5.555-22.836l1.852-0.617
	c2.874,4.532,5.343,8.438,7.406,11.727h30.242c-1.649-0.82-2.681-3.289-3.086-7.406c-0.829-5.757-2.469-10.492-4.938-14.195
	l1.234-1.852c9.46,0,16.249,2.469,20.367,7.406C951.032,18.894,950.415,24.236,945.072,29.174z M894.463,62.502h89.492v11.109
	h-35.18v20.984h32.094v11.109h-32.094v35.797h40.734v11.109H888.908v-11.109h41.352v-35.797h-32.711V94.596h32.711V73.611h-35.797
	V62.502z M952.479,109.408l1.234-1.234c15.218,4.117,23.453,9.875,24.688,17.281c1.234,5.767-0.212,9.673-4.32,11.727
	c-4.532,2.874-8.023,2.257-10.492-1.852c-0.829-0.819-1.649-2.671-2.469-5.555C958.65,122.369,955.767,115.58,952.479,109.408z"/>
<path fill="#888888" d="M311.63,214.783l-9.519-19.196h3.6l7.599,15.997l7.559-15.997h3.6l-9.519,19.196v10.398h-3.319V214.783z
	 M342.071,195.587h3.279v29.595h-3.279V195.587z M386.147,220.303l-0.04-24.716h3.199v29.595h-3.199l-17.558-24.916l0.08,24.916
	h-3.199v-29.595h3.359L386.147,220.303z M433.586,203.266c-0.92-1.28-2.039-2.36-3.319-3.2c-1.92-1.319-4.239-2.079-6.879-2.079
	c-6.479,0-12.118,4.959-12.118,12.357c0,7.52,5.68,12.479,12.158,12.479c3.12,0,5.879-1.08,7.919-2.68
	c2.079-1.64,3.52-3.88,3.999-6.199h-14.718v-2.72h18.558c-0.04,1.72-0.44,3.88-1.32,5.72c-2.56,5.559-8.479,8.798-14.438,8.798
	c-8.639,0-15.478-6.639-15.478-15.397c0-8.878,6.959-15.277,15.518-15.277c5.999,0,11.559,3.359,13.878,8.199H433.586z
	 M465.148,209.904l-9.518-14.317h3.799l7.639,11.798l7.639-11.798h3.76l-9.479,14.357l10.198,15.237h-3.8l-8.438-12.838
	l-8.278,12.838h-3.68L465.148,209.904z M496.63,195.587h3.279v29.595h-3.279V195.587z M520.909,225.182h-3.56l12.357-29.595h3.2
	l12.237,29.595h-3.599l-3.439-8.318h-13.798L520.909,225.182z M531.188,199.306l-5.879,14.838h11.798L531.188,199.306z
	 M561.149,210.464c0-9.118,7.078-15.397,15.438-15.397c8.679,0,15.438,6.64,15.438,15.317c0,8.679-6.719,15.317-15.438,15.317
	c-8.759,0-15.438-6.759-15.438-15.197V210.464z M564.469,210.384c0,6.959,5.239,12.398,12.158,12.398
	c6.998,0,12.117-5.64,12.117-12.398s-5.119-12.397-12.157-12.397c-6.959,0-12.118,5.519-12.118,12.357V210.384z M610.709,195.587
	h7.799c2.68,0,4.519,0.479,5.839,1.399c2.399,1.359,3.199,3.84,3.199,6.159c0,3.479-1.96,5.239-3.959,6.278
	c5.319,1.641,5.679,6.159,5.679,7.52c-0.04,3.199-1.52,5.599-4.039,6.919c-1.76,1.079-3.439,1.319-6.359,1.319h-8.158V195.587z
	 M613.988,208.385h4.479c1.359,0,2.56-0.16,3.479-0.601c1.88-1.039,2.399-2.6,2.399-4.398c0-2.16-1.16-3.64-2.399-4.2
	c-0.76-0.399-1.76-0.64-3.68-0.68h-4.279V208.385z M613.988,222.262h5.359c1.199,0,2.52-0.119,3.6-0.56
	c1.759-0.76,3.079-2.279,3.119-4.919c0-2.399-1.28-4.159-3.159-4.999c-1.32-0.561-2.32-0.601-4.16-0.601h-4.759V222.262z
	 M648.749,225.182h-3.56l12.357-29.595h3.2l12.237,29.595h-3.6l-3.439-8.318h-13.797L648.749,225.182z M659.027,199.306
	l-5.88,14.838h11.799L659.027,199.306z M688.989,210.464c0-9.118,7.078-15.397,15.438-15.397c8.678,0,15.438,6.64,15.438,15.317
	c0,8.679-6.72,15.317-15.438,15.317c-8.759,0-15.438-6.759-15.438-15.197V210.464z M692.309,210.384
	c0,6.959,5.239,12.398,12.158,12.398c6.998,0,12.117-5.64,12.117-12.398s-5.119-12.397-12.157-12.397
	c-6.959,0-12.118,5.519-12.118,12.357V210.384z M742.948,225.182h-3.12v-4.399h3.12V225.182z M762.828,210.464
	c0-9.118,7.079-15.397,15.438-15.397c8.679,0,15.438,6.64,15.438,15.317c0,8.679-6.719,15.317-15.438,15.317
	c-8.759,0-15.438-6.759-15.438-15.197V210.464z M766.147,210.384c0,6.959,5.239,12.398,12.158,12.398
	c6.999,0,12.118-5.64,12.118-12.398s-5.119-12.397-12.158-12.397c-6.959,0-12.118,5.519-12.118,12.357V210.384z M812.108,195.587
	h7.719c4.639,0,6.799,0.56,8.318,1.52c2.399,1.439,4.039,4.6,4.039,7.959c0.04,1.999-0.52,4.119-1.76,5.799
	c-1.76,2.399-3.879,2.959-6.599,3.239l7.358,11.078h-3.6l-8.358-12.918h0.96c2.08,0,4.959-0.04,6.559-1.52
	c1.561-1.52,2.24-3.319,2.24-5.439c0-2.199-1.08-4.519-2.92-5.719c-1.479-0.96-3.319-1.08-5.999-1.08h-4.639v26.676h-3.319V195.587z
	 M874.224,203.266c-0.92-1.28-2.04-2.36-3.319-3.2c-1.92-1.319-4.239-2.079-6.879-2.079c-6.479,0-12.118,4.959-12.118,12.357
	c0,7.52,5.679,12.479,12.158,12.479c3.119,0,5.879-1.08,7.918-2.68c2.08-1.64,3.52-3.88,4-6.199h-14.718v-2.72h18.557
	c-0.04,1.72-0.439,3.88-1.319,5.72c-2.56,5.559-8.479,8.798-14.438,8.798c-8.639,0-15.478-6.639-15.478-15.397
	c0-8.878,6.959-15.277,15.518-15.277c5.999,0,11.558,3.359,13.878,8.199H874.224z M902.627,225.182h-3.12v-4.399h3.12V225.182z
	 M951.582,217.223c-1.919,4.56-7.079,8.479-13.598,8.479c-8.759,0-15.438-6.759-15.438-15.317c0-8.438,6.52-15.317,15.397-15.317
	c7.319,0,11.918,4.88,13.638,8.639h-3.56c-0.999-1.76-4.359-5.719-10.078-5.719c-6.919,0-12.118,5.479-12.118,12.357
	c0,6.999,5.239,12.438,12.118,12.438c6.199,0,9.358-4.439,10.078-5.56H951.582z M990.783,220.303l-0.04-24.716h3.199v29.595h-3.199
	l-17.557-24.916l0.08,24.916h-3.2v-29.595h3.359L990.783,220.303z"/>
<path fill-rule="evenodd" clip-rule="evenodd" fill="#26A2FF" d="M180.036,176.66c-14.636-1.661-27.588-9.447-36.652-20.958
	c6.709-11.272,10.617-24.675,10.617-39.07v-5.264c0-39.968-30-72.368-67.005-72.368H45.001v130H0V0h87.001
	C147.752,0,197,49.249,197,110v8C197,139.573,190.767,159.679,180.036,176.66z M53.001,189h33.995
	c19.337,0,36.75-8.859,48.98-23.011c9.45,10.938,22.004,18.703,36.149,21.671C151.952,212.282,121.314,228,87.001,228H0v-39h45.001
	H53.001z"/>
<path fill-rule="evenodd" clip-rule="evenodd" fill="#FF9C17" d="M185.001,228c-60.752,0-110-49.249-110-110v-8
	c0-21.572,6.233-41.677,16.963-58.658c14.631,1.669,27.578,9.465,36.636,20.987c-6.698,11.266-10.6,24.656-10.6,39.039v5.264
	C118,156.6,148,189,185.006,189H227V53V39V0h45.001v228H185.001z M185.006,39c-4.411,0-8.716,0.482-12.888,1.362
	c-9.82-11.997-22.131-21.865-36.135-28.849C150.743,4.151,167.385,0,185.001,0h22v39H185.006z"/>
</svg>
